<svg
    width="512"
    height="512"
    viewBox="0 0 512 512"
    fill="none"
    xmlns="http://www.w3.org/2000/svg"
>
<g clip-path="url(#clip0_224_2)">
<rect width="512" height="512" fill="white" />
<rect width="512" height="512" fill="#FF9111" />
<path
            d="M146.637 379.637L75.5918 193.309C74.0293 189.012 71.832 186.18 69 184.812C66.168 183.348 63.2383 182.566 60.2109 182.469C57.1836 182.371 54.4492 182.225 52.0078 182.029C49.957 181.834 48.5898 181.443 47.9062 180.857C47.125 180.174 46.7344 178.758 46.7344 176.609C46.7344 175.535 47.1738 174.021 48.0527 172.068C48.9316 170.115 50.1523 169.139 51.7148 169.139H128.619C130.279 169.139 131.5 170.115 132.281 172.068C133.16 174.021 133.6 175.535 133.6 176.609C133.6 179.832 131.988 181.639 128.766 182.029C122.809 182.322 117.877 182.566 113.971 182.762C110.064 182.957 108.111 184.227 108.111 186.57C108.111 187.059 108.258 187.693 108.551 188.475L162.164 343.016L212.994 192.869C213.189 192.088 213.287 191.551 213.287 191.258C213.287 188.328 210.895 186.18 206.109 184.812C201.324 183.348 195.904 182.42 189.85 182.029C186.627 181.639 185.016 179.832 185.016 176.609C185.016 175.535 185.406 174.021 186.188 172.068C187.066 170.115 188.336 169.139 189.996 169.139H256.646C258.307 169.139 259.527 170.115 260.309 172.068C261.188 174.021 261.627 175.535 261.627 176.609C261.627 178.758 261.236 180.174 260.455 180.857C259.771 181.443 258.404 181.834 256.354 182.029C254.01 182.225 251.275 182.371 248.15 182.469C245.123 182.566 242.193 183.348 239.361 184.812C236.627 186.18 234.43 189.012 232.77 193.309L164.654 379.637H146.637ZM272.76 377C271.1 377 269.83 376.023 268.951 374.07C268.17 372.117 267.779 370.604 267.779 369.529C267.779 366.307 269.391 364.5 272.613 364.109C277.301 363.719 281.988 362.889 286.676 361.619C291.461 360.252 293.854 357.957 293.854 354.734L294 196.238C294 192.039 292.73 189.012 290.191 187.156C287.75 185.301 284.82 184.08 281.402 183.494C277.984 182.811 274.762 182.322 271.734 182.029C269.684 181.834 268.268 181.443 267.486 180.857C266.803 180.174 266.461 178.758 266.461 176.609C266.461 175.535 266.852 174.021 267.633 172.068C268.512 170.115 269.781 169.139 271.441 169.139H343.951C345.611 169.139 346.832 170.115 347.613 172.068C348.492 174.021 348.932 175.535 348.932 176.609C348.932 179.832 347.32 181.639 344.098 182.029C339.41 182.42 334.918 183.299 330.621 184.666C326.422 185.936 324.322 188.182 324.322 191.404L324.176 349.9C324.176 354.1 325.299 357.127 327.545 358.982C329.791 360.838 332.525 362.059 335.748 362.645C338.971 363.23 342.047 363.719 344.977 364.109C347.027 364.305 348.395 364.695 349.078 365.281C349.859 365.867 350.25 367.283 350.25 369.529C350.25 370.604 349.811 372.117 348.932 374.07C348.15 376.023 346.93 377 345.27 377H272.76ZM415.436 377C413.775 377 411.627 376.219 408.99 374.656C406.354 373.094 403.277 369.822 399.762 364.842C395.953 359.471 391.803 353.074 387.311 345.652C382.818 338.133 378.082 330.369 373.102 322.361C368.219 314.256 363.287 306.688 358.307 299.656C353.326 292.527 348.443 286.668 343.658 282.078C338.873 277.391 334.381 274.803 330.182 274.314L398.15 190.086C398.932 189.207 399.322 188.377 399.322 187.596C399.322 186.229 398.297 185.203 396.246 184.52C394.195 183.836 391.852 183.348 389.215 183.055C386.578 182.664 384.381 182.371 382.623 182.176C380.768 181.98 379.547 181.443 378.961 180.564C378.375 179.588 378.082 178.318 378.082 176.756C378.082 175.682 378.473 174.168 379.254 172.215C380.133 170.164 381.402 169.139 383.062 169.139H449.127C450.787 169.139 452.008 170.164 452.789 172.215C453.668 174.168 454.107 175.682 454.107 176.756C454.107 180.369 452.496 182.176 449.273 182.176C444.293 182.176 439.215 183.104 434.039 184.959C428.863 186.814 424.322 189.158 420.416 191.99L362.848 259.959C367.438 262.986 372.564 267.967 378.229 274.9C383.893 281.736 389.703 289.451 395.66 298.045C401.715 306.541 407.574 314.939 413.238 323.24C418.902 331.541 423.932 338.621 428.326 344.48C431.939 349.266 436.48 353.611 441.949 357.518C447.418 361.424 451.959 363.572 455.572 363.963C457.623 364.158 458.99 365.037 459.674 366.6C460.455 368.162 460.846 370.066 460.846 372.312C460.846 373.387 460.406 374.461 459.527 375.535C458.746 376.512 457.525 377 455.865 377H415.436Z"
            fill="white"
        />
<g filter="url(#filter0_d_224_2)">
<path
                d="M444.736 79.754C542.073 183.99 536.482 347.398 432.246 444.735C328.01 542.073 164.602 536.481 67.264 432.245C-30.0734 328.009 -24.481 164.602 79.7548 67.2639C183.991 -30.0735 347.398 -24.4815 444.736 79.754ZM93.8025 114.646C24.4744 194.873 26.86 317.833 102.753 399.105C178.646 480.377 301.157 491.163 385.936 427.482L93.8025 114.646ZM409.247 112.894C333.618 31.9066 211.699 20.9134 126.954 83.8545L418.921 396.512C487.508 316.269 484.875 193.882 409.247 112.894Z"
                fill="#FF0000"
            />
</g>
</g>
<defs>
<filter
            id="filter0_d_224_2"
            x="-9.03254"
            y="-9.03291"
            width="530.065"
            height="530.065"
            filterUnits="userSpaceOnUse"
            color-interpolation-filters="sRGB"
        >
<feFlood flood-opacity="0" result="BackgroundImageFix" />
<feColorMatrix
                in="SourceAlpha"
                type="matrix"
                values="0 0 0 0 0 0 0 0 0 0 0 0 0 0 0 0 0 0 127 0"
                result="hardAlpha"
            />
<feOffset />
<feGaussianBlur stdDeviation="3.4" />
<feComposite in2="hardAlpha" operator="out" />
<feColorMatrix
                type="matrix"
                values="0 0 0 0 0 0 0 0 0 0 0 0 0 0 0 0 0 0 0.25 0"
            />
<feBlend
                mode="normal"
                in2="BackgroundImageFix"
                result="effect1_dropShadow_224_2"
            />
<feBlend
                mode="normal"
                in="SourceGraphic"
                in2="effect1_dropShadow_224_2"
                result="shape"
            />
</filter>
<clipPath id="clip0_224_2">
<rect width="512" height="512" fill="white" />
</clipPath>
</defs>
</svg>
